<?xml version="1.0" encoding="UTF-8" standalone="no"?>
<!-- Created with Inkscape (http://www.inkscape.org/) -->

<svg
   width="65.060112mm"
   height="59.674107mm"
   viewBox="0 0 65.060112 59.674107"
   version="1.1"
   id="svg1"
   xmlns:xlink="http://www.w3.org/1999/xlink"
   xmlns="http://www.w3.org/2000/svg"
   xmlns:svg="http://www.w3.org/2000/svg">
  <defs
     id="defs1">
    <linearGradient
       id="linearGradient3">
      <stop
         style="stop-color:#a855f7;stop-opacity:1;"
         offset="0"
         id="stop3" />
      <stop
         style="stop-color:#7e22ce;stop-opacity:1;"
         offset="1"
         id="stop4" />
    </linearGradient>
    <linearGradient
       xlink:href="#linearGradient3"
       id="linearGradient4"
       x1="74.628006"
       y1="123.36106"
       x2="139.68811"
       y2="123.36106"
       gradientUnits="userSpaceOnUse" />
  </defs>
  <g
     id="layer1"
     transform="translate(-74.627998,-93.52401)">
    <path
       id="path1"
       style="fill:url(#linearGradient4);stroke:none;stroke-width:2.80034"
       d="m 107.15832,93.524007 c -17.966082,-8.9e-5 -32.530478,12.690253 -32.530317,28.344523 0.01081,6.2821 2.415629,12.36258 6.800487,17.30099 0.801175,0.90232 1.345511,2.54347 1.142459,3.73321 l -1.402887,8.21994 a 1.7765603,1.7765603 39.684775 0 0 2.368048,1.96493 l 10.385348,-3.84489 c 1.131868,-0.41905 3.003031,-0.53919 4.185222,-0.29612 2.4635,0.50653 6.50105,1.24978 9.05164,1.26595 17.96565,-1.6e-4 32.52963,-12.69012 32.52979,-28.34401 1.6e-4,-15.65409 -14.56391,-28.344358 -32.52979,-28.344523 z" />
    <path
       d="m 94.632163,105.03943 c -0.28026,0.0182 -0.568,0.1255 -0.82476,0.33072 -4.37994,3.50085 -7.318682,8.73245 -7.767481,14.64976 -0.06629,0.87402 -0.0663,2.29786 0,3.1719 0.44884,5.91727 3.387891,11.14844 7.768001,14.64871 0.68474,0.5472 1.63181,0.32781 2.07016,-0.43149 0.38875,-0.67342 0.11567,-1.62125 -0.55553,-2.18488 -3.50044,-2.93953 -5.84812,-7.20475 -6.272995,-12.03286 -0.07683,-0.87308 -0.07683,-2.29777 0,-3.17087 0.424885,-4.82821 2.772505,-9.0934 6.272995,-12.03337 0.67115,-0.56368 0.904,-1.58115 0.46561,-2.34043 -0.24312,-0.42108 -0.6889,-0.63758 -1.156,-0.60719 z m 24.239347,0.0269 c -0.48313,-0.003 -0.95598,0.26128 -1.2299,0.73587 -0.38882,0.67367 -0.11561,1.62168 0.55552,2.1854 3.50015,2.93995 5.84761,7.20494 6.27249,12.03285 0.0768,0.87309 0.0768,2.29777 0,3.17087 -0.42489,4.82781 -2.77238,9.09284 -6.27249,12.03234 -0.67116,0.56366 -0.90395,1.58112 -0.4656,2.34042 0.38875,0.67342 1.29552,0.82321 1.98024,0.27596 4.37959,-3.5003 7.31817,-8.73131 7.76696,-14.6482 0.0663,-0.87402 0.0663,-2.29787 0,-3.1719 -0.44879,-5.91704 -3.38732,-11.14841 -7.76696,-14.64924 -0.25676,-0.20523 -0.55039,-0.30286 -0.84026,-0.30437 z m -21.143927,5.02966 c -0.0563,-0.002 -0.11292,-7.8e-4 -0.17002,0.005 -0.27409,0.0261 -0.5533,0.14378 -0.79788,0.36328 -2.68943,2.41362 -4.50959,5.7762 -4.91082,9.55756 -0.0925,0.87144 -0.0925,2.29786 0,3.16931 0.40125,3.78112 2.22148,7.1429 4.91082,9.55601 0.65226,0.58526 1.58991,0.38101 2.0283,-0.37827 0.39014,-0.67573 0.13156,-1.64793 -0.4899,-2.2655 -1.82948,-1.81804 -3.07508,-4.22067 -3.42924,-6.91379 -0.11424,-0.86864 -0.11423,-2.29756 0,-3.16621 0.35416,-2.69327 1.59969,-5.09639 3.42924,-6.91483 0.62139,-0.61761 0.84088,-1.65758 0.40256,-2.4169 -0.21339,-0.36967 -0.57902,-0.57817 -0.97306,-0.59532 z m 18.219557,0.0305 c -0.47251,-0.0164 -0.94144,0.24169 -1.21543,0.71624 -0.39014,0.67572 -0.13156,1.64793 0.48989,2.26549 1.82991,1.81847 3.07599,4.22158 3.43028,6.91483 0.11427,0.86863 0.11428,2.29757 0,3.16621 -0.3543,2.69309 -1.60044,5.09572 -3.43028,6.91379 -0.6215,0.61751 -0.84094,1.65762 -0.40256,2.41691 0.39014,0.67572 1.28865,0.81207 1.94097,0.22686 2.68981,-2.41312 4.51053,-5.77484 4.91184,-9.55601 0.0925,-0.87143 0.0925,-2.29787 0,-3.16931 -0.40134,-3.78125 -2.22203,-7.14349 -4.91184,-9.55704 -0.2446,-0.21948 -0.52937,-0.32814 -0.81287,-0.33797 z m -15.04198,5.29735 c -0.34241,-0.0328 -0.70462,0.10529 -0.986497,0.44029 -0.98604,1.17182 -1.67838,2.5978 -1.96009,4.16253 -0.15514,0.86174 -0.15516,2.29673 0,3.15847 0.2817,1.56453 0.97414,2.99053 1.96009,4.16202 0.563827,0.66993 1.478307,0.5035 1.916677,-0.2558 0.40329,-0.69854 0.20113,-1.76188 -0.23358,-2.52026 -0.24831,-0.4332 -0.44366,-0.90147 -0.57722,-1.39578 -0.22804,-0.84394 -0.22798,-2.29435 0,-3.13831 0.1336,-0.49459 0.32931,-0.96333 0.57774,-1.39681 0.43464,-0.75841 0.60786,-1.87104 0.1695,-2.63033 -0.20165,-0.34928 -0.52421,-0.55319 -0.86662,-0.58602 z m 11.79101,0.0222 c -0.38934,0.0208 -0.77154,0.25915 -1.0113,0.67437 -0.40323,0.6983 -0.20118,1.7614 0.23357,2.51975 0.24855,0.43353 0.44409,0.90217 0.57775,1.39681 0.22804,0.84393 0.2281,2.29439 0,3.13831 -0.13363,0.49436 -0.32932,0.96253 -0.57775,1.39578 -0.43481,0.75831 -0.60844,1.87107 -0.17001,2.63033 0.40322,0.69829 1.28921,0.81509 1.85312,0.14521 0.98608,-1.1714 1.67881,-2.59715 1.9606,-4.1615 0.15522,-0.86172 0.15521,-2.29674 0,-3.15847 -0.2818,-1.56455 -0.97443,-2.99027 -1.9606,-4.16202 -0.21144,-0.25122 -0.47197,-0.38506 -0.73846,-0.41392 -0.0555,-0.006 -0.11129,-0.008 -0.16692,-0.005 z m -5.93607,3.11505 c -1.68138,0 -3.04477,1.36287 -3.04477,3.04426 0,1.68139 1.36339,3.04477 3.04477,3.04477 1.68139,0 3.04426,-1.36338 3.04426,-3.04477 0,-1.68139 -1.36287,-3.04426 -3.04426,-3.04426 z"
       style="fill:#ffffff"
       id="path49" />
  </g>
</svg>
